<svg width="51" height="50" viewBox="0 0 51 50" fill="none" xmlns="http://www.w3.org/2000/svg">
<rect x="41.625" y="43.2811" width="7.82924" height="3.50271" fill="#38D4FF"/>
<path d="M45.0842 5.31845L41.8924 12.3625C41.7162 12.7514 41.625 13.1736 41.625 13.6006V45.6594C41.625 46.764 42.5204 47.6594 43.625 47.6594H47.4542C48.5588 47.6594 49.4542 46.764 49.4542 45.6594V13.6006C49.4542 13.1736 49.3631 12.7514 49.1868 12.3625L45.995 5.31845C45.8176 4.92694 45.2616 4.92694 45.0842 5.31845Z" stroke="#710000" stroke-width="2"/>
<path d="M41.625 13.5077H46.0289H49.4542" stroke="#710000" stroke-width="2"/>
<path d="M41.625 43.2811H49.4542" stroke="#710000" stroke-width="2"/>
<path d="M23.4751 10.3954L23.0965 4.1017C23.061 3.51157 23.5425 3.01963 24.1333 3.0424L25.3052 3.08758C25.5531 3.09714 25.7887 3.19854 25.966 3.37207L34.6432 11.8623C35.163 12.3708 34.9834 13.2463 34.3056 13.5093L32.2587 14.3034C32.1223 14.3563 31.9761 14.3786 31.8302 14.3689L26.3835 14.0044C26.0906 13.9848 25.8211 13.8374 25.6465 13.6015L23.6695 10.9302C23.5543 10.7745 23.4867 10.5887 23.4751 10.3954Z" fill="#38D4FF"/>
<path d="M1.5 9.1239V40.8761C1.5 44.7421 4.63401 47.8761 8.5 47.8761H29.0041C32.8701 47.8761 36.0041 44.7421 36.0041 40.8761V15.1929C36.0041 13.2054 35.1592 11.3116 33.6803 9.9839L26.9199 3.91495C25.6353 2.76176 23.97 2.1239 22.2437 2.1239H8.5C4.63401 2.1239 1.5 5.25791 1.5 9.1239Z" stroke="#710000" stroke-width="2.5"/>
<path d="M6.39355 27.081C6.39355 26.3555 7.18224 25.7675 8.15513 25.7675H28.1197C29.0926 25.7675 29.8813 26.3555 29.8813 27.081C29.8813 27.8064 29.0926 28.3945 28.1197 28.3945H8.15513C7.18224 28.3945 6.39355 27.8064 6.39355 27.081Z" fill="#E541ED"/>
<path d="M6.39355 20.951C6.39355 20.2255 7.18224 19.6375 8.15513 19.6375H28.1197C29.0926 19.6375 29.8813 20.2255 29.8813 20.951C29.8813 21.6764 29.0926 22.2645 28.1197 22.2645H8.15513C7.18224 22.2645 6.39355 21.6764 6.39355 20.951Z" fill="#E541ED"/>
<path d="M6.39355 33.2109C6.39355 32.4854 7.18224 31.8973 8.15513 31.8973H28.1197C29.0926 31.8973 29.8813 32.4854 29.8813 33.2109C29.8813 33.9363 29.0926 34.5244 28.1197 34.5244H8.15513C7.18224 34.5244 6.39355 33.9363 6.39355 33.2109Z" fill="#E541ED"/>
<path d="M6.39355 39.3398C6.39355 38.6143 7.19163 38.0262 8.17611 38.0262H21.2481C22.2326 38.0262 23.0307 38.6143 23.0307 39.3398C23.0307 40.0652 22.2326 40.6533 21.2481 40.6533H8.17611C7.19163 40.6533 6.39355 40.0652 6.39355 39.3398Z" fill="#E541ED"/>
<path d="M22.9092 2.30945V10.0265C22.9092 12.2356 24.7 14.0265 26.9092 14.0265H35.1727" stroke="#710000" stroke-width="2.5" stroke-linecap="round"/>
</svg>
