<svg width="51" height="49" viewBox="0 0 51 49" fill="none" xmlns="http://www.w3.org/2000/svg">
<line x1="21.7271" y1="46.3623" x2="21.7271" y2="37.5513" stroke="#E541ED" stroke-width="3" stroke-linecap="round"/>
<line x1="29.9946" y1="46.165" x2="29.9946" y2="37.354" stroke="#E541ED" stroke-width="3" stroke-linecap="round"/>
<path d="M20.7395 14.1578L3.92974 23.8234C3.04525 24.332 2.5 25.2745 2.5 26.2948C2.5 27.8692 3.77633 29.1455 5.35076 29.1455H45.5C47.1569 29.1455 48.5 27.8024 48.5 26.1455V13.4762C48.5 10.9454 45.5591 9.55171 43.6003 11.1544L33.8662 19.1187C32.7762 20.0104 31.2128 20.024 30.1075 19.1514L24.0939 14.4038C23.1312 13.6438 21.8028 13.5464 20.7395 14.1578Z" fill="#38D4FF"/>
<rect x="2" y="2.14551" width="47" height="34.7953" rx="4.5" stroke="#710000" stroke-width="3"/>
<line x1="12.2271" y1="46.8545" x2="40.3294" y2="46.8545" stroke="#710000" stroke-width="3" stroke-linecap="round"/>
<path d="M2.5 29.6455H47.6772" stroke="#710000" stroke-width="3"/>
</svg>
